<svg fill="none" height="128" width="128" viewBox="0 0 128 128" xmlns="http://www.w3.org/2000/svg" xmlns:xlink="http://www.w3.org/1999/xlink" style="width: 128px; height: 128px; flex-shrink: 0;">
  <clipPath id="a">
    <path d="m0 0h128v128h-128z"></path>
  </clipPath>
  <g clip-path="url(#a)">
    <g transform="translate(0,6) scale(4.9)">
      <path d="m13 23.6647-13-6.6697 8.179-12.56563 1.4547.74649 3.3663-5.17586 5.1499 7.91826 1.4547-.74641 6.3954 9.82315z" fill="#3d6646"></path>
      <path d="m13 23.6647v-23.6647l5.1499 7.91826 1.4547-.74641 6.3954 9.82315z" fill="#2e4d35"></path>
      <g fill="#7bf063">
        <path d="m13.0002 16.4439-4.99123-2.5611-2.88714 1.4812 7.87837 4.0425 7.8784-4.0425-2.8871-1.4812z"></path>
        <path d="m16.5644 8.73107-3.5644-1.82873-3.56433 1.82873 3.56433 1.82883z"></path>
        <path d="m13.0001 12.3393-3.33228-1.7099-2.26694 1.163 5.59922 2.873 5.5992-2.873-2.2669-1.163z"></path>
      </g>
      <path d="m13 16.4439v2.9626l7.8784-4.0425-2.8871-1.4812z" fill="#64d44c"></path>
      <path d="m16.5644 8.73107-3.5644-1.82873v3.65756z" fill="#64d44c"></path>
      <path d="m13 12.3393v2.3261l5.5993-2.873-2.267-1.163z" fill="#64d44c"></path>
      <g transform="translate(16,15) scale(0.5)">
        <!-- Outer circle -->
        <circle cx="8" cy="8" r="7" stroke="#222" stroke-width="0.8" fill="#fff"/>
        <!-- Timer hands: one at 12am (vertical), one at 1:30 (45deg) -->
        <rect x="7.8" y="3" width="0.4" height="5" rx="0.2" fill="#000"/>
        <rect x="8" y="8" width="0.4" height="5" rx="0.2" fill="#000" transform="rotate(45 8 8)"/>
        <!-- Center dot -->
        <circle cx="8" cy="8" r="1" fill="#222"/>
      </g>
    </g>
  </g>
</svg>

